<svg width="1419" height="1419" xmlns="http://www.w3.org/2000/svg" xmlns:xlink="http://www.w3.org/1999/xlink" xml:space="preserve" overflow="hidden"><defs><clipPath id="clip0"><rect x="1491" y="530" width="1419" height="1419"/></clipPath></defs><g clip-path="url(#clip0)" transform="translate(-1491 -530)"><path d="M2066.14 1039.58C2062.2 1040.36 2057.95 1043.13 2053.44 1047.8 2046.5 1055.42 2045.81 1057.84 2049.28 1062.69 2051.7 1065.81 2054.48 1071.35 2055.52 1074.46 2058.64 1083.12 2071.13 1082.43 2073.21 1073.77 2074.25 1069.96 2076.33 1066.84 2078.07 1066.84 2082.58 1066.84 2081.88 1048.15 2077.03 1043.3 2073.73 1040.01 2070.09 1038.8 2066.14 1039.58ZM2197 977C2232.21 977 2265.75 984.121 2296.26 997L2305.11 1001.79 2300.44 1003.37C2297.14 1004.92 2293.32 1007.09 2289.86 1009.51 2273.2 1020.94 2263.49 1020.59 2235.05 1007.09 2205.21 993.239 2183.71 991.508 2155.61 1001.2 2132.37 1009.17 2112.25 1022.67 2112.25 1030.63 2112.25 1037.21 2126.47 1042.41 2143.81 1042.41 2157.34 1042.41 2164.97 1037.21 2172.95 1023.71 2175.03 1019.9 2179.54 1017.82 2184.75 1018.51L2192.73 1019.9 2180.93 1037.21C2169.83 1054.18 2169.14 1054.52 2148.32 1056.6 2135.14 1057.99 2123.35 1061.45 2116.76 1065.95 2111.2 1069.76 2101.49 1073.57 2094.9 1074.26 2084.49 1075.3 2082.76 1076.68 2081.72 1084.99 2080.68 1094.69 2079.29 1095.73 2063.68 1099.19 2048.07 1102.3 2035.93 1132.43 2048.42 1137.27 2064.72 1143.51 2077.56 1139.35 2096.98 1121.69 2107.74 1112 2118.84 1104.73 2121.96 1105.42 2125.43 1106.11 2129.94 1112.69 2132.37 1120.31 2137.92 1137.27 2140.69 1140.04 2147.98 1137.27 2151.79 1135.89 2153.87 1130 2154.57 1119.27 2155.95 1100.23 2161.16 1097.11 2166.71 1112 2170.52 1121.69 2171.91 1122.73 2180.58 1120.65 2202.09 1115.11 2207.64 1116.15 2208.68 1126.19 2210.07 1136.58 2214.23 1138.66 2238.52 1140.04 2253.78 1141.08 2256.9 1145.24 2249.96 1154.59 2245.8 1160.47 2243.03 1160.82 2223.95 1157.36 2208.68 1154.59 2196.89 1154.59 2182.67 1157.36 2165.32 1160.47 2159.42 1160.13 2138.61 1153.55 2082.76 1136.24 2032.11 1152.85 2016.5 1193.71 2008.52 1213.79 2008.52 1248.07 2016.16 1262.96 2026.22 1282.35 2036.28 1287.19 2070.27 1289.96 2103.92 1292.73 2117.8 1298.62 2128.55 1314.89 2133.41 1322.17 2135.14 1333.94 2136.53 1369.6 2138.26 1419.46 2141.04 1426.04 2168.1 1453.74 2177.81 1463.78 2181.28 1464.81 2198.62 1464.81 2217.35 1464.81 2219.09 1464.12 2234.35 1448.2 2243.37 1439.19 2255.51 1421.88 2261.06 1409.42 2270.08 1390.37 2271.82 1382.76 2271.82 1359.56L2271.82 1332.55 2297.83 1305.89C2312.06 1291 2323.85 1277.5 2323.85 1275.08 2323.85 1273 2314.83 1264.34 2303.73 1256.03 2272.86 1232.14 2244.41 1194.4 2248.58 1182.98 2249.96 1179.86 2252.04 1177.44 2253.78 1177.44 2255.51 1177.44 2266.27 1189.56 2277.37 1204.1 2302.34 1236.64 2308.59 1243.22 2314.83 1243.22 2321.77 1243.22 2355.07 1216.22 2355.07 1210.68 2355.07 1207.91 2348.13 1201.67 2339.46 1196.83 2323.85 1187.48 2319.69 1178.82 2328.71 1175.36 2331.48 1174.32 2341.2 1177.78 2350.22 1182.98 2359.24 1188.17 2372.07 1193.36 2379.01 1194.4 2392.19 1196.83 2392.88 1197.52 2413.35 1241.15 2424.8 1266.42 2431.74 1271.61 2441.45 1262.61 2446.65 1258.11 2448.73 1251.88 2448.73 1242.18 2448.73 1238.38 2449.25 1234.22 2450.12 1230.67L2451.58 1227.36 2452 1231.5C2452 1372.06 2337.83 1486 2197 1486 2056.17 1486 1942 1372.06 1942 1231.5 1942 1090.94 2056.17 977 2197 977Z" fill="#8F45C7" fill-rule="evenodd"/><path d="M2200.42 955.555C1939.76 955.555 1718.42 1137.81 1633.97 1217.77 1612.12 1238.94 1613.58 1268.34 1636.88 1288.33 1722.79 1361.23 1942.68 1519.97 2200.42 1519.97 2458.16 1519.97 2678.05 1361.23 2765.42 1288.33 2787.26 1269.51 2788.72 1238.94 2766.87 1217.77 2682.42 1137.81 2461.08 955.555 2200.42 955.555ZM2200.5 530 2910 1239.5 2200.5 1949 1491 1239.5Z" fill="#FFFFFF" fill-rule="evenodd"/></g></svg>