<svg width="819" height="270" xmlns="http://www.w3.org/2000/svg" xmlns:xlink="http://www.w3.org/1999/xlink" xml:space="preserve" overflow="hidden"><g transform="translate(-1809 -325)"><g><g><g><g><path d="M1884.79 416.154C1884.27 416.257 1883.71 416.622 1883.12 417.237 1882.21 418.241 1882.11 418.56 1882.57 419.199 1882.89 419.611 1883.26 420.341 1883.39 420.75 1883.81 421.892 1885.45 421.801 1885.73 420.66 1885.86 420.157 1886.14 419.746 1886.37 419.746 1886.96 419.746 1886.87 417.283 1886.23 416.644 1885.79 416.211 1885.31 416.051 1884.79 416.154ZM1902.04 407.907C1906.68 407.907 1911.1 408.845 1915.12 410.543L1916.29 411.174 1915.67 411.382C1915.24 411.586 1914.73 411.872 1914.28 412.191 1912.08 413.697 1910.8 413.651 1907.05 411.872 1903.12 410.047 1900.29 409.819 1896.58 411.096 1893.52 412.146 1890.87 413.925 1890.87 414.974 1890.87 415.842 1892.74 416.527 1895.03 416.527 1896.81 416.527 1897.82 415.842 1898.87 414.062 1899.14 413.56 1899.74 413.286 1900.42 413.377L1901.48 413.56 1899.92 415.842C1898.46 418.078 1898.37 418.123 1895.62 418.397 1893.89 418.58 1892.33 419.036 1891.46 419.629 1890.73 420.131 1889.45 420.633 1888.58 420.724 1887.21 420.861 1886.98 421.043 1886.85 422.138 1886.71 423.416 1886.53 423.553 1884.47 424.009 1882.41 424.419 1880.81 428.39 1882.46 429.028 1884.61 429.85 1886.3 429.302 1888.86 426.975 1890.28 425.698 1891.74 424.74 1892.15 424.83 1892.61 424.921 1893.2 425.789 1893.52 426.793 1894.25 429.028 1894.62 429.393 1895.58 429.028 1896.08 428.846 1896.36 428.07 1896.45 426.656 1896.63 424.146 1897.32 423.735 1898.05 425.698 1898.55 426.975 1898.73 427.112 1899.88 426.838 1902.71 426.107 1903.44 426.244 1903.58 427.568 1903.76 428.937 1904.31 429.211 1907.51 429.393 1909.52 429.53 1909.93 430.078 1909.02 431.31 1908.47 432.085 1908.1 432.131 1905.59 431.675 1903.58 431.31 1902.02 431.31 1900.15 431.675 1897.86 432.085 1897.09 432.04 1894.34 431.173 1886.98 428.892 1880.31 431.081 1878.25 436.466 1877.2 439.112 1877.2 443.629 1878.21 445.592 1879.53 448.147 1880.86 448.785 1885.34 449.15 1889.77 449.515 1891.6 450.291 1893.02 452.435 1893.66 453.394 1893.89 454.945 1894.07 459.645 1894.3 466.216 1894.66 467.083 1898.23 470.733 1899.51 472.056 1899.97 472.192 1902.25 472.192 1904.72 472.192 1904.95 472.101 1906.96 470.003 1908.15 468.816 1909.75 466.534 1910.48 464.892 1911.67 462.382 1911.9 461.379 1911.9 458.322L1911.9 454.762 1915.33 451.249C1917.2 449.287 1918.76 447.508 1918.76 447.189 1918.76 446.915 1917.57 445.773 1916.1 444.678 1912.04 441.53 1908.29 436.556 1908.84 435.052 1909.02 434.64 1909.29 434.321 1909.52 434.321 1909.75 434.321 1911.17 435.919 1912.63 437.835 1915.92 442.123 1916.74 442.99 1917.57 442.99 1918.48 442.99 1922.87 439.432 1922.87 438.702 1922.87 438.337 1921.96 437.515 1920.81 436.877 1918.76 435.645 1918.21 434.503 1919.4 434.047 1919.76 433.91 1921.04 434.366 1922.23 435.052 1923.42 435.735 1925.11 436.419 1926.02 436.556 1927.76 436.877 1927.85 436.968 1930.55 442.717 1932.06 446.047 1932.97 446.731 1934.25 445.545 1934.94 444.952 1935.21 444.131 1935.21 442.853 1935.21 442.352 1935.28 441.804 1935.4 441.336L1935.59 440.9 1935.64 441.446C1935.64 459.969 1920.6 474.984 1902.04 474.984 1883.48 474.984 1868.43 459.969 1868.43 441.446 1868.43 422.922 1883.48 407.907 1902.04 407.907Z" fill="#8F45C7" fill-rule="evenodd"/><path d="M1902.49 405.081C1868.14 405.081 1838.97 429.099 1827.84 439.636 1824.96 442.426 1825.15 446.301 1828.22 448.935 1839.55 458.542 1868.52 479.461 1902.49 479.461 1936.46 479.461 1965.43 458.542 1976.95 448.935 1979.83 446.455 1980.02 442.426 1977.14 439.636 1966.01 429.099 1936.84 405.081 1902.49 405.081ZM1902.5 349 1996 442.5 1902.5 536 1809 442.5Z" fill="#FFFFFF" fill-rule="evenodd"/></g></g></g></g><text fill="#FFFFFF" font-family="Acier BAT Text Solid,Acier BAT Text Solid_MSFontService,sans-serif" font-weight="400" font-size="128" transform="matrix(1 0 0 1 2067.39 477)">LE</text><text fill="#8F45C7" font-family="Acier BAT Text Solid,Acier BAT Text Solid_MSFontService,sans-serif" font-weight="400" font-size="128" transform="matrix(1 0 0 1 2222.65 477)">3</text><text fill="#8F45C7" font-family="Acier BAT Text Solid,Acier BAT Text Solid_MSFontService,sans-serif" font-weight="400" font-size="86" transform="matrix(1 0 0 1 2286.82 438)">e</text><text fill="#FFFFFF" font-family="Acier BAT Text Solid,Acier BAT Text Solid_MSFontService,sans-serif" font-weight="400" font-size="128" transform="matrix(1 0 0 1 2348.12 477)">Œil</text></g></svg>