<svg width="1419" height="1419" xmlns="http://www.w3.org/2000/svg" xmlns:xlink="http://www.w3.org/1999/xlink" xml:space="preserve" overflow="hidden"><defs><clipPath id="clip0"><rect x="1491" y="530" width="1419" height="1419"/></clipPath></defs><g clip-path="url(#clip0)" transform="translate(-1491 -530)"><path d="M2066.14 1037.75C2062.2 1038.53 2057.95 1041.29 2053.44 1045.97 2046.5 1053.59 2045.81 1056.01 2049.28 1060.86 2051.7 1063.97 2054.48 1069.51 2055.52 1072.63 2058.64 1081.29 2071.13 1080.59 2073.21 1071.94 2074.25 1068.13 2076.33 1065.01 2078.07 1065.01 2082.58 1065.01 2081.88 1046.32 2077.03 1041.47 2073.73 1038.18 2070.09 1036.97 2066.14 1037.75ZM2197 977C2232.21 977 2265.75 984.121 2296.26 997L2303.02 1000.66 2300.44 1001.53C2297.14 1003.09 2293.32 1005.26 2289.86 1007.68 2273.2 1019.11 2263.49 1018.76 2235.05 1005.26 2205.21 991.407 2183.71 989.676 2155.61 999.371 2132.37 1007.33 2112.25 1020.84 2112.25 1028.8 2112.25 1035.38 2126.47 1040.57 2143.81 1040.57 2157.34 1040.57 2164.97 1035.38 2172.95 1021.88 2175.03 1018.07 2179.54 1015.99 2184.75 1016.68L2192.73 1018.07 2180.93 1035.38C2169.83 1052.35 2169.14 1052.69 2148.32 1054.77 2135.14 1056.15 2123.35 1059.62 2116.76 1064.12 2111.2 1067.93 2101.49 1071.73 2094.9 1072.43 2084.49 1073.47 2082.76 1074.85 2081.72 1083.16 2080.68 1092.85 2079.29 1093.89 2063.68 1097.36 2048.07 1100.47 2035.93 1130.59 2048.42 1135.44 2064.72 1141.67 2077.56 1137.52 2096.98 1119.86 2107.74 1110.17 2118.84 1102.9 2121.96 1103.59 2125.43 1104.28 2129.94 1110.86 2132.37 1118.48 2137.92 1135.44 2140.69 1138.21 2147.98 1135.44 2151.79 1134.06 2153.87 1128.17 2154.57 1117.44 2155.95 1098.39 2161.16 1095.28 2166.71 1110.17 2170.52 1119.86 2171.91 1120.9 2180.58 1118.82 2202.09 1113.28 2207.64 1114.32 2208.68 1124.36 2210.07 1134.75 2214.23 1136.83 2238.52 1138.21 2253.78 1139.25 2256.9 1143.41 2249.96 1152.75 2245.8 1158.64 2243.03 1158.99 2223.95 1155.52 2208.68 1152.75 2196.89 1152.75 2182.67 1155.52 2165.32 1158.64 2159.42 1158.29 2138.61 1151.72 2082.76 1134.4 2032.11 1151.02 2016.5 1191.88 2008.52 1211.96 2008.52 1246.24 2016.16 1261.13 2026.22 1280.52 2036.28 1285.36 2070.27 1288.13 2103.92 1290.9 2117.8 1296.79 2128.55 1313.06 2133.41 1320.33 2135.14 1332.11 2136.53 1367.77 2138.26 1417.63 2141.04 1424.2 2168.1 1451.9 2177.81 1461.94 2181.28 1462.98 2198.62 1462.98 2217.35 1462.98 2219.09 1462.29 2234.35 1446.36 2243.37 1437.36 2255.51 1420.05 2261.06 1407.58 2270.08 1388.54 2271.82 1380.92 2271.82 1357.73L2271.82 1330.72 2297.83 1304.06C2312.06 1289.17 2323.85 1275.67 2323.85 1273.24 2323.85 1271.17 2314.83 1262.51 2303.73 1254.2 2272.86 1230.31 2244.41 1192.57 2248.58 1181.15 2249.96 1178.03 2252.04 1175.61 2253.78 1175.61 2255.51 1175.61 2266.27 1187.72 2277.37 1202.27 2302.34 1234.81 2308.59 1241.39 2314.83 1241.39 2321.77 1241.39 2355.07 1214.38 2355.07 1208.84 2355.07 1206.07 2348.13 1199.84 2339.46 1195 2323.85 1185.65 2319.69 1176.99 2328.71 1173.53 2331.48 1172.49 2341.2 1175.95 2350.22 1181.15 2359.24 1186.34 2372.07 1191.53 2379.01 1192.57 2392.19 1195 2392.88 1195.69 2413.35 1239.31 2424.8 1264.59 2431.74 1269.78 2441.45 1260.78 2446.65 1256.28 2448.73 1250.05 2448.73 1240.35 2448.73 1236.54 2449.25 1232.39 2450.12 1228.84L2451.43 1225.87 2452 1231.5C2452 1372.06 2337.83 1486 2197 1486 2056.17 1486 1942 1372.06 1942 1231.5 1942 1090.94 2056.17 977 2197 977Z" fill="#7030A0" fill-rule="evenodd"/><path d="M2200.42 955.555C1939.76 955.555 1718.42 1137.81 1633.97 1217.77 1612.12 1238.94 1613.58 1268.34 1636.88 1288.33 1722.79 1361.23 1942.68 1519.97 2200.42 1519.97 2458.16 1519.97 2678.05 1361.23 2765.42 1288.33 2787.26 1269.51 2788.72 1238.94 2766.87 1217.77 2682.42 1137.81 2461.08 955.555 2200.42 955.555ZM2200.5 530 2910 1239.5 2200.5 1949 1491 1239.5Z" fill-rule="evenodd"/></g></svg>